<?xml version="1.0" encoding="UTF-8"?><svg id="Layer_1" xmlns="http://www.w3.org/2000/svg" viewBox="0 0 481.26 155.04"><defs><style>.cls-1{fill:#c9a167;}.cls-2{fill:#c8a066;}</style></defs><path class="cls-1" d="M112.73,104.91c.87-.25,3.32,1.49,4.14,2.01-1.65,1.52-3.33,3.36-5.03,4.8-.45.38-1.52,1.36-1.99,1.29-.29-.04-2.16-1.17-2.08-1.51.95-.79,4.26-6.39,4.95-6.59Z"/><path class="cls-2" d="M269.2,49.44c1.43.23,2.84-.38,4.2-.48,6.01-.41,7.97,4.27,6.66,9.54-.88,3.54-2.52,5.06-5.83,6.41-2.88,1.17-7.95,1.49-10.16,2.8-1.35.8-3.92,5.05-5.2,6.56-2.43,2.88-5.3,5.81-9.23,6.36-10.41-1.2-25.03,3.41-33.1-4.79-3.89-3.95-10.25-16.82-10.67-22.21-.1-1.33-.21-5.28.05-6.43.51-2.24,5.83-3.48,7.82-3.94,12.62-2.88,32.2-2.79,44.95-.48,3.65.66,11.06,1.65,10.51,6.65ZM228.61,43.51c-5.15.2-12.89.62-17.7,2.21-2.64.87-4.09,2-.66,3.31,5.1,1.94,15.53,2.41,21.16,2.59,8.63.27,20.34.05,28.72-1.77,3.68-.8,8.49-2.41,1.82-4.31-8.99-2.56-23.88-2.39-33.34-2.02ZM273.23,51.41c-4.32.43-5.42,4.94-6.49,8.41-.5,1.62-.99,3.3-1.26,4.98,5.03-2.59,12.46-1.19,12.84-8.76.13-2.59-2.58-4.87-5.09-4.62Z"/><path class="cls-1" d="M263.49,83.1c-.1.1.03.47-.2.67-2.76,2.43-28.46,2.33-33.32,2.15-2.46-.09-13.88-.87-15.31-2.15-.27-.24-.02-.67-.29-.75-.29-.08-.85.03-1.31-.09-3.52-.95-7.79-1.04-10.94-2.25-.81-.31-2.04-.79-.89-1.7.97-.78,5.98-1.49,7.44-1.67,2.37-.3,4.93-.52,7.29-.39,2.87,3.62,8.68,4.46,13.06,4.69,5.55.3,13.44.37,18.96-.01,3.08-.21,6.29-1.11,8.74-3.02.89-.69,1.59-2.07,2.76-2.03,3.6.12,14.39.78,17.3,2.16,2.03.96.64,1.69-.75,2.16-2.13.72-11.89,1.57-12.53,2.24Z"/><path class="cls-1" d="M237.54,35.52c.04-3.17-.28-6.62-1.27-9.65-1.77-5.39-7.95-11.05-5.87-17.06,1.13-3.26,4.3-6.65,6.9-8.81-.43,2.76-1.61,5.7-1.69,8.51-.11,3.85,4.03,8.84,5.41,12.61s1.81,8.04-.4,11.59c-.29.47-2.53,3.36-3.07,2.8Z"/><path class="cls-1" d="M248.33,10.8c-.15,1.55-.82,3.15-.93,4.71-.22,3.17,2.48,6,3.51,8.9,1.24,3.49,1.07,7.22-2.23,9.42-.16-2.1-.29-4.25-.91-6.29-.92-3.05-4.26-6.46-4.25-9.67,0-1.93,2.56-5.56,4.07-6.72.24-.18.3-.47.72-.36Z"/><path class="cls-1" d="M227.95,35.04c-.11-2.1-.24-4.42-.89-6.43-1.02-3.11-4.17-6.16-4.17-9.53,0-2.78,2.84-5.5,4.7-7.32.07,1.52-.73,3.08-.84,4.68-.24,3.71,2.02,5.41,3.23,8.52,1.41,3.62,1.49,7.72-2.03,10.08Z"/><path class="cls-1" d="M352.87,114.79c15.67-1.36,27.69,14.68,19.52,28.89-6.11,10.63-21.2,13.14-30.62,5.35-13.85-11.45-6.28-32.73,11.1-34.24ZM354.07,120.07c-18.43.91-17.4,28.42.89,28.27s18.34-29.21-.89-28.27Z"/><path class="cls-2" d="M306.62,115.2v14.88h16.31v-14.88h6v37.92h-6v-17.4s-.33-.36-.36-.36h-19.55c.96,1.07,2.33,1.97,3.6,2.64v15.12h-6v-37.92h6Z"/><path class="cls-1" d="M203.48,153.12h-5.88l-4.8-9.36h-21.47c.44.79,3.1,2,3.11,2.75l-3.23,6.61h-5.88l19.07-39.84,19.07,39.84ZM190.28,138.48l-5.88-12.72-5.88,12.72h11.75Z"/><path class="cls-1" d="M419.61,129.36l.97-.59,13.79-13.57h7.56l-16.57,16.47,16.57,21.45h-7.56l-13.67-16.8h-4.68c.29.7,3.6,2.61,3.6,3v13.44s-.33.36-.36.36h-5.88v-37.92h5.88s.36.33.36.36v13.8Z"/><path class="cls-1" d="M481.26,153.12h-5.88l-4.8-9.36h-21.47c.41.88,3.1,1.93,3.11,2.75.02.97-2.86,5.3-3.23,6.61h-5.88l19.19-39.84,18.95,39.84ZM468.06,138.48l-5.88-12.48-6.12,12.48h11.99Z"/><path class="cls-1" d="M226.02,153.12l18.83-39.84,19.31,39.84h-5.88l-4.8-9.36h-21.47l3.1,2.54-3.1,6.82h-6ZM238.98,138.48h11.99l-5.88-12.48-6.11,12.48Z"/><path class="cls-1" d="M151.9,137.76v15.36h-5.88s-.36-.33-.36-.36v-37.2c0-.26.59-.34.83-.37,4.27-.5,13.54-.03,17.24,2.22,5.79,3.51,5.98,13.64.76,17.71-1.62,1.26-5.66,2.65-7.67,2.65h-4.92ZM151.9,132.48h4.44c.3,0,2.12-.46,2.51-.61,3.85-1.4,4.35-8.05,1.05-10.15-.38-.24-2.28-1-2.6-1h-9c.29.61,3.6,2.53,3.6,2.76v9Z"/><polygon class="cls-1" points="122.16 115.2 122.16 120.72 102.73 120.72 105.91 123.18 106.8 123.6 106.8 129.6 120.72 129.6 120.72 135.12 106.8 135.12 106.8 147.6 122.16 147.6 122.16 153.12 100.57 153.12 100.57 115.2 122.16 115.2"/><path class="cls-1" d="M95.53,115.2v5.52h-17.51c.25.66,3.36,2.46,3.36,2.76v6.12h12.71v5.52h-12.71v18h-6v-37.92h20.15Z"/><path class="cls-1" d="M71.3,153.12h-5.88l-4.8-9.36h-21.47c.41.88,3.1,1.93,3.11,2.75.02,1.1-2.94,5.12-3.11,6.61h-6l19.19-39.84,18.95,39.84ZM58.11,138.48l-5.76-12.48-6.23,12.48h11.99Z"/><path class="cls-1" d="M30.52,117.36v6.96l-3.44-2.44c-10.94-5.9-23.82,3.74-20.59,16.04,2.28,8.68,12.64,12.9,20.43,8.61l3.59-2.52v6.96c-12.22,7.02-29.54-.73-30.48-15.23-1.06-16.35,16.6-25.9,30.48-18.37Z"/><path class="cls-1" d="M294.63,117.36v6.96c-5.28-4.95-13.07-5.75-18.93-1.3-8.45,6.42-6.97,19.57,2.7,23.9,5.71,2.56,11.7,1.23,16.23-2.92v6.96c-11.13,6.2-26.29.9-29.75-11.64-4.83-17.48,14.69-30.38,29.75-21.96Z"/><polygon class="cls-1" points="381.71 115.2 392.38 140.64 403.42 115.2 409.29 115.2 392.26 155.04 375.71 115.2 381.71 115.2"/><polygon class="cls-1" points="213.55 115.2 213.55 147.6 225.06 147.6 225.06 153.12 207.55 153.12 207.55 115.2 213.55 115.2"/></svg>