<?xml version="1.0" encoding="UTF-8"?><svg id="Layer_1" xmlns="http://www.w3.org/2000/svg" viewBox="0 0 435.45 145.2"><defs><style>.cls-1{fill:#fff;}</style></defs><path class="cls-1" d="M419.44,114.39c-10.5-1.19-30.26-8.67-35.71-18.29-2.43-4.3-1.77-8.89-4.24-12.47-5,1.08-10.97,1.07-16.08.79-3.21-.18-7.34-2.18-9.75-1.84-4.55.64-10.49,6.04-17.14,5.73-7.2-.33-9.73-7.74-12.07-7.97s-8.46,2.69-12.01,3.04c-6.22.61-12.52-1.56-17.89-.91-4.46.54-9.49,4.71-13.07,4.97-3.34.24-.35-6.09-2.04-6.06-13.06,2.48-31.36,14.83-41.99,2.04-5.72,4.57-15.21,11.14-22.82,8.79-2.63-.81-2.02-4.9-8.28-5.72-3.33-.44-14.15.53-17.67,1.14-7.06,1.22-27.7,14.68-36.38,18.62-12.34,5.61-27.98,11.87-41.15,14.85-3.81.86-24.55,5.73-19.26-3.25s42.46-20.87,53.05-23.95c23.82-6.92,38.98-4.96,58.52-22.48,26.45-23.71,26.46-45.92-10.9-55.16-16.19-4-57.24-4.86-72.86.4-2.93.99-10.2,9.31-12.74,12.26-17.99,20.87-48.5,67.59-43.79,95.73,1.39,8.34,11.19,18.15,20.21,16.69,3.1-.5,5.65-3.66,9.03-3.95l1.52,2.49c-17.72,14.92-36.45-4.21-34.87-23.87,2.78-34.7,32.15-70.54,51.88-97.61-30.9,7.26-69.95,19.13-94.47,40.02-2.33,1.99-11.17,9.47-8.63,12.53,2.44,2.91,9,.97,9.1,5.43-23.91,3-19.41-8.67-5.47-19.96,20.79-16.84,54.6-29.39,80.26-36.74,6.08-1.74,17.12-2.88,21.95-5.05s7.72-9.29,11.76-12.24c9.45-6.89,14.63,3.19,8.8,4.81-4.27,1.19-9.75-1.08-11.29,6.2,23.63-4.73,83.11-6.99,98.42,15.07,13.98,20.14-14.33,43.63-28.43,54.92,5.83.08,11.69-.06,17.54-.04,10,.04,7.05-1.29,14.19-2.73,3.14-.63,6.47.01,9.69-.3,2.07-.2,3.9-1.71,5.95-1.63,3.78.14,2.3,4.07,4.66,6.19,6.85,6.13,28.22-6.85,35.54-6.41,3.12.19,3.1,4.01,4,3.99,2.02-.04,6.76-3.07,10.94-3.14,4.86-.08,8.91,2.47,13.97,2.11,7.98-.58,16.5-9.43,25.1-5.06-3.43,14.99,10.65,7.03,17.32,2.42,2.41-1.66,6.01-8.35,10.11-3.88,1.06,1.65-5.19,6.48-1.5,6.48h19c2.91,0,3.69-5.8,4.96-8.04,3.52-6.22,19.86-29.18,28.39-23.81,3.09,7.85-8.13,19.56-13.84,24.37-3.59,3.02-14.43,8-15.01,11.02-2.95,15.33,22.49,23.33,33.75,25.21,3.17.53,16.59.6,17.76,2.25l-1.01,2c-4.82-.39-10.29.53-15,0ZM409.94,52.4c-2.03-1.89-12.97,9.21-14.51,10.98s-10.5,13.78-9.48,15.01c10.36-5.92,19.38-14.87,23.99-25.99ZM175.93,90.4c-22.78,4.07-48.64,10.71-69.32,21.17-1.5.76-9.48,5.18-10.01,5.77-1,1.1-.71,1.68-.67,3.04,20.43-1.37,39.59-10.82,58.38-18.12l21.62-11.87Z"/><path class="cls-1" d="M331.94,64.37c-.71-5.16,10.45-5.02,10.99-2.47.71,3.35-8.77,4.18-10.99,2.47Z"/></svg>